<?xml version="1.0" encoding="UTF-8"?>
<svg id="Layer_2" data-name="Layer 2" xmlns="http://www.w3.org/2000/svg" viewBox="0 0 544.95 233.75">
  <defs>
    <style>
      .cls-1, .cls-2 {
        stroke-width: 0px;
      }

      .cls-1, .cls-3 {
        fill: #1d2a35;
      }

      .cls-2 {
        fill: #f2634b;
      }

      .cls-3 {
        stroke: #1d2a35;
        stroke-miterlimit: 10;
        stroke-width: 4px;
      }
    </style>
  </defs>
  <g id="Layer_1-2" data-name="Layer 1">
    <path class="cls-2" d="M155.45,161.06c0,3.49-.32,6.59-.95,9.29-.48,2.54-1.11,5.04-1.9,7.51-.79,2.46-1.66,4.88-2.62,7.26-.95,2.22-2.06,4.45-3.33,6.67-1.27,2.23-2.61,4.45-4.04,6.67-1.27,2.07-2.73,4.05-4.4,5.96-1.66,1.9-3.37,3.73-5.11,5.48-1.74,1.75-3.57,3.42-5.47,5-1.9,1.59-3.89,3.1-5.94,4.53-2.22,1.43-4.4,2.74-6.54,3.93-2.14,1.19-4.4,2.27-6.77,3.22-2.38,1.11-4.75,2.03-7.13,2.74s-4.91,1.39-7.61,2.02c-5.07.95-10.3,1.43-15.69,1.43s-10.46-.47-15.69-1.43c-2.54-.63-5.03-1.31-7.49-2.02-2.46-.71-4.79-1.54-7.01-2.5-2.38-1.11-4.68-2.26-6.89-3.45-2.22-1.19-4.36-2.49-6.42-3.92-4.28-2.85-8.16-6.02-11.65-9.51-3.33-3.33-6.5-7.13-9.51-11.41-2.7-4.12-5.07-8.56-7.13-13.31-.95-2.38-1.82-4.79-2.61-7.25-.79-2.45-1.43-4.95-1.9-7.49-.63-2.53-1.07-5.11-1.31-7.73-.24-2.61-.36-5.27-.36-7.96v-18.06c0-5.55.55-10.77,1.66-15.69.48-2.53,1.11-5.03,1.9-7.49.79-2.45,1.66-4.87,2.61-7.25,2.06-4.75,4.43-9.19,7.13-13.31,1.43-2.06,2.93-4.04,4.52-5.94,1.58-1.9,3.25-3.72,4.99-5.47,3.48-3.48,7.37-6.65,11.65-9.51,3.96-2.85,8.4-5.23,13.31-7.13,2.22-1.11,4.55-2.02,7.01-2.73,2.46-.71,4.95-1.31,7.49-1.78,10.61-2.22,21.07-2.22,31.38,0,5.23.95,10.14,2.46,14.74,4.52,2.38.95,4.64,2.02,6.77,3.21,2.14,1.19,4.32,2.5,6.54,3.92,2.06,1.43,4.04,2.93,5.94,4.52,1.9,1.59,3.72,3.25,5.47,4.99l-27.33,27.57c-2.06-2.06-4.04-3.72-5.94-4.99-1.75-1.27-3.96-2.45-6.65-3.57-1.11-.48-2.26-.87-3.45-1.19-1.19-.32-2.42-.63-3.68-.95-5.39-1.27-10.7-1.27-15.92,0-2.7.48-5.15,1.19-7.37,2.14-1.11.48-2.22.99-3.33,1.55-1.11.56-2.22,1.23-3.33,2.02-.95.79-1.94,1.59-2.97,2.38-1.03.8-1.94,1.66-2.73,2.61-.95.79-1.78,1.66-2.49,2.61-.71.95-1.47,1.98-2.26,3.09-1.59,2.22-2.77,4.44-3.56,6.65-1.11,2.22-1.9,4.68-2.38,7.37-.48,2.7-.71,5.31-.71,7.84v18.06c0,2.85.24,5.47.71,7.84.47,2.7,1.27,5.15,2.38,7.37.79,2.22,1.98,4.44,3.56,6.65,1.58,2.38,3.17,4.36,4.75,5.94.79.8,1.7,1.59,2.73,2.38,1.03.79,2.02,1.58,2.97,2.38,1.11.79,2.22,1.47,3.33,2.02,1.11.56,2.22,1.07,3.33,1.55,2.22.95,4.67,1.66,7.37,2.14,5.23,1.27,10.54,1.27,15.92,0,1.27-.32,2.5-.63,3.68-.95,1.19-.32,2.34-.71,3.45-1.19,2.69-1.11,4.91-2.3,6.65-3.57,1.11-.79,2.14-1.58,3.09-2.38.95-.79,1.9-1.58,2.85-2.38.79-.95,1.58-1.9,2.38-2.85.79-.95,1.58-1.98,2.38-3.09,1.43-2.22,2.61-4.43,3.57-6.65.31-.79.59-1.58.83-2.38.24-.79.51-1.58.83-2.38h-37.79v-38.98h77.72l-.24,34.78Z"/>
    <path class="cls-1" d="M339.78,233.75h-2.17c-.92,0-1.58-.07-1.97-.2-8.66-.53-16.21-3.22-22.64-8.07-6.43-4.86-11.1-11.29-13.98-19.3-1.97-5.64-2.76-10.96-2.36-15.95.39-5.12,1.58-9.71,3.54-13.78,2.23-4.46,4.86-8.4,7.88-11.82,1.7-1.84,3.41-3.61,5.12-5.32,1.7-1.7,3.48-3.35,5.32-4.92-1.97-1.97-3.68-3.94-5.12-5.91-1.58-2.36-2.95-4.92-4.14-7.68-2.23-5.25-3.15-10.96-2.76-17.13.39-5.51,2.23-11.03,5.51-16.54,3.28-5.25,7.61-9.58,13-13,5.25-3.02,11.03-4.86,17.33-5.51,7.35-.52,14.37.92,21.07,4.33,3.28,1.71,6.17,3.81,8.66,6.3,2.49,2.49,4.66,5.38,6.5,8.66,3.54,6.43,5.25,13.06,5.12,19.89-.39,7.35-2.63,13.92-6.7,19.69-.66,1.05-1.38,2.04-2.17,2.95-.79.92-1.64,1.9-2.56,2.95-.92.92-1.84,1.81-2.76,2.66-.92.86-1.9,1.74-2.95,2.66l46.27,51.59-24.22,21.86-10.63-11.81c-2.63,2.1-5.45,3.94-8.47,5.51-3.02,1.58-6.24,3.02-9.65,4.33-6.7,2.36-13.39,3.54-20.09,3.54ZM340.56,178.61c-4.46,3.42-7.62,6.5-9.45,9.26-1.71,2.49-2.1,4.99-1.18,7.48.66,1.71,1.51,3.02,2.56,3.94,1.18,1.05,3.08,1.64,5.71,1.77,1.44.13,2.92.13,4.43,0,1.51-.13,3.05-.46,4.63-.98,2.89-.92,5.84-2.23,8.86-3.94l-15.55-17.52ZM345.29,121.12h-.39c-1.31.26-2.36.66-3.15,1.18-.92.66-1.58,1.31-1.97,1.97-.79.92-1.05,1.84-.79,2.76,0,.66.13,1.12.39,1.38.13.66.79,1.58,1.97,2.76.66.66,1.21,1.25,1.67,1.77.46.53.95,1.05,1.48,1.58v.2c2.49-1.97,4.4-3.94,5.71-5.91l.79-1.58c.39-.79.13-1.84-.79-3.15-.13-.13-.3-.33-.49-.59-.2-.26-.49-.59-.89-.98-.79-.92-1.97-1.38-3.55-1.38Z"/>
    <g>
      <path class="cls-3" d="M250.78,62.36h-55.3c-.47,0-.85-.38-.85-.86v-.1c0-.47.38-.86.85-.86h55.3c.47,0,.86.38.86.86v.1c0,.47-.38.86-.86.86Z"/>
      <rect class="cls-3" x="196.43" y="62.36" width=".83" height="13.17"/>
      <rect class="cls-3" x="248.8" y="62.36" width=".83" height="13.17"/>
      <rect class="cls-3" x="213.72" y="62.36" width=".83" height="13.17"/>
      <rect class="cls-3" x="231.51" y="62.36" width=".83" height="13.17"/>
    </g>
    <path class="cls-1" d="M510.69,88.03l34.26,144.93h-33.08l-3.94-16.15h-42.53l-3.74,16.15h-33.08l34.07-144.93h48.05ZM473.08,184.52h27.37l-13.78-58.09-13.59,58.09Z"/>
    <ellipse class="cls-1" cx="223.03" cy="5.8" rx="5.76" ry="5.8"/>
    <path class="cls-1" d="M251.63,42.67h-57.2c0-16.51,13.39-29.9,29.9-29.9h0c15.08,0,27.3,12.22,27.3,27.3v2.6Z"/>
    <path class="cls-1" d="M247.19,88.03h-23.25c7.63,45.24,15.25,90.48,22.88,135.71,0,.03,0,.06.02.09.51,3.05,1.02,6.08,1.54,9.13h33.08l-34.27-144.93ZM199.15,88.03l-34.06,144.93h33.08c.12-.71.25-1.42.38-2.13.86-4.85,1.72-9.7,2.58-14.55,7.61-42.75,15.2-85.5,22.81-128.25h-24.79Z"/>
    <path class="cls-1" d="M227.7,149.58h-21.65v-27.08h13.65c4.42,0,8,3.58,8,8v19.08Z"/>
    <path class="cls-1" d="M233.98,207.57h-55.85v-27.08h47.85c4.42,0,8,3.58,8,8v19.08h0Z"/>
    <path class="cls-1" d="M242.6,97.9h-40.11c-2.68-6.79-5.37-13.59-8.05-20.38h57.2c-3.01,6.79-6.02,13.58-9.04,20.38Z"/>
    <path class="cls-2" d="M240.92,52.92c100.44-15.08,200.88-30.17,301.32-45.25.89,14.82,1.78,29.65,2.66,44.47-101.33.26-202.65.52-303.98.78Z"/>
  </g>
</svg>