<?xml version="1.0" encoding="UTF-8"?>
<svg id="Layer_2" data-name="Layer 2" xmlns="http://www.w3.org/2000/svg" viewBox="0 0 271.05 233.25">
  <defs>
    <style>
      .cls-1, .cls-2 {
        stroke-width: 0px;
      }

      .cls-1, .cls-3 {
        fill: #1d2a35;
      }

      .cls-2 {
        fill: #f2634b;
      }

      .cls-3 {
        stroke: #1d2a35;
        stroke-miterlimit: 10;
        stroke-width: 4px;
      }
    </style>
  </defs>
  <g id="Layer_1-2" data-name="Layer 1">
    <g>
      <g>
        <path class="cls-3" d="M63.31,62.74H8.4c-.47,0-.85-.38-.85-.86v-.11c0-.47.38-.86.85-.86h54.91c.47,0,.85.38.85.86v.11c0,.47-.38.86-.85.86Z"/>
        <rect class="cls-3" x="9.34" y="62.74" width=".83" height="13.26"/>
        <rect class="cls-3" x="61.35" y="62.74" width=".83" height="13.26"/>
        <rect class="cls-3" x="26.51" y="62.74" width=".83" height="13.26"/>
        <rect class="cls-3" x="44.18" y="62.74" width=".83" height="13.26"/>
      </g>
      <ellipse class="cls-1" cx="35.75" cy="5.83" rx="5.72" ry="5.83"/>
      <path class="cls-1" d="M64.16,42.93H7.34v-1.74c0-15.65,12.69-28.35,28.35-28.35h.13c15.65,0,28.35,12.69,28.35,28.35v1.74h0Z"/>
      <path class="cls-1" d="M11.03,87.44L0,233.25h10.71c.04-.72.08-1.43.12-2.14.28-4.88.56-9.76.84-14.63,2.46-43.01,4.92-86.02,7.38-129.03h-8.03Z"/>
      <path class="cls-1" d="M40.39,150.49H14.68v-27.25h17.72c4.42,0,8,3.58,8,8v19.25Z"/>
      <path class="cls-1" d="M46.63,208.83H7.34v-27.25h31.29c4.42,0,8,3.58,8,8v19.25Z"/>
      <path class="cls-1" d="M55.19,98.49H15.34c-2.67-6.83-5.33-13.67-8-20.5h56.82c-2.99,6.83-5.99,13.67-8.98,20.5Z"/>
      <path class="cls-2" d="M54,52.76c71.71-10.91,143.43-21.81,215.14-32.72.63,10.72,1.27,21.44,1.9,32.16-72.35.19-144.7.38-217.04.56Z"/>
      <path class="cls-1" d="M60.06,87.44l11.03,145.81h-10.71c-.04-.72-.08-1.43-.12-2.14-.28-4.88-.56-9.76-.84-14.63-2.46-43.01-4.92-86.02-7.38-129.03h8.03Z"/>
    </g>
  </g>
</svg>